<svg width="36" height="34" viewBox="0 0 36 34" fill="none" xmlns="http://www.w3.org/2000/svg">
<path d="M29.1767 12.0717C29.1767 14.3651 28.4901 16.4688 27.3085 18.2244C25.5841 20.7551 22.8537 22.5424 19.6763 23.0011C19.1334 23.096 18.5745 23.1434 17.9997 23.1434C17.4249 23.1434 16.8661 23.096 16.3232 23.0011C13.1457 22.5424 10.4154 20.7551 8.6909 18.2244C7.50934 16.4688 6.82275 14.3651 6.82275 12.0717C6.82275 5.95063 11.8205 1 17.9997 1C24.179 1 29.1767 5.95063 29.1767 12.0717Z" stroke="#223C24" stroke-width="2" stroke-linecap="round" stroke-linejoin="round"/>
<path d="M32.7696 27.0501L30.135 27.667C29.5442 27.8093 29.0812 28.2522 28.9535 28.8374L28.3946 31.1625C28.0912 32.4278 26.4626 32.8074 25.6163 31.811L18 23.1434L10.3837 31.8268C9.53741 32.8232 7.90876 32.4436 7.60539 31.1783L7.04654 28.8532C6.90284 28.268 6.43979 27.8093 5.86497 27.6828L3.2304 27.066C2.0169 26.7812 1.58579 25.2787 2.46398 24.4087L8.69115 18.2402C10.4156 20.7709 13.146 22.5582 16.3235 23.0169C16.8664 23.1118 17.4252 23.1592 18 23.1592C18.5748 23.1592 19.1337 23.1118 19.6766 23.0169C22.854 22.5582 25.5844 20.7709 27.3089 18.2402L33.536 24.4087C34.4142 25.2628 33.9831 26.7654 32.7696 27.0501Z" stroke="#223C24" stroke-width="2" stroke-linecap="round" stroke-linejoin="round"/>
<path d="M18.9261 7.29506L19.8681 9.16142C19.9959 9.41449 20.3312 9.66757 20.6346 9.71502L22.343 9.9997C23.4288 10.1737 23.6843 10.9645 22.9019 11.7396L21.5766 13.0523C21.3531 13.2737 21.2253 13.7008 21.3052 14.0172L21.6884 15.6463C21.9918 16.9274 21.3052 17.4336 20.1555 16.7535L18.5588 15.8203C18.2714 15.6463 17.7924 15.6463 17.505 15.8203L15.9083 16.7535C14.7586 17.4178 14.072 16.9274 14.3754 15.6463L14.7586 14.0172C14.8225 13.7166 14.7107 13.2737 14.4872 13.0523L13.1619 11.7396C12.3795 10.9645 12.635 10.1895 13.7208 9.9997L15.4293 9.71502C15.7167 9.66757 16.052 9.41449 16.1797 9.16142L17.1218 7.29506C17.5848 6.28279 18.4151 6.28279 18.9261 7.29506Z" stroke="#223C24" stroke-width="2" stroke-linecap="round" stroke-linejoin="round"/>
</svg>
