<svg width="30" height="30" viewBox="0 0 30 30" fill="none" xmlns="http://www.w3.org/2000/svg">
<path d="M15 30C6.72558 30 0 23.2744 0 15C0 6.72558 6.72558 0 15 0C23.2744 0 30 6.72558 30 15C30 23.2744 23.2744 30 15 30ZM15 2.09302C7.88372 2.09302 2.09302 7.88372 2.09302 15C2.09302 22.1163 7.88372 27.907 15 27.907C22.1163 27.907 27.907 22.1163 27.907 15C27.907 7.88372 22.1163 2.09302 15 2.09302Z" fill="#223C24"/>
<path d="M20.1763 20.4837C19.9949 20.4837 19.8135 20.4419 19.646 20.3302L15.3205 17.7488C14.246 17.107 13.4507 15.6977 13.4507 14.4558V8.7349C13.4507 8.1628 13.9251 7.68839 14.4972 7.68839C15.0693 7.68839 15.5437 8.1628 15.5437 8.7349V14.4558C15.5437 14.9581 15.9623 15.6977 16.3949 15.9488L20.7205 18.5302C21.2228 18.8233 21.3763 19.4651 21.0832 19.9674C20.8739 20.3023 20.5251 20.4837 20.1763 20.4837Z" fill="#223C24"/>
</svg>
