<svg width="17" height="17" viewBox="0 0 17 17" fill="none" xmlns="http://www.w3.org/2000/svg">
<path d="M8.5 17C3.81116 17 0 13.1888 0 8.5C0 3.81116 3.81116 0 8.5 0C13.1888 0 17 3.81116 17 8.5C17 13.1888 13.1888 17 8.5 17ZM8.5 1.18605C4.46744 1.18605 1.18605 4.46744 1.18605 8.5C1.18605 12.5326 4.46744 15.814 8.5 15.814C12.5326 15.814 15.814 12.5326 15.814 8.5C15.814 4.46744 12.5326 1.18605 8.5 1.18605Z" fill="#292D32"/>
<path d="M6.26181 11.3307C6.11158 11.3307 5.96136 11.2754 5.84275 11.1568C5.61345 10.9275 5.61345 10.5479 5.84275 10.3186L10.3181 5.8433C10.5474 5.614 10.927 5.614 11.1563 5.8433C11.3856 6.0726 11.3856 6.45214 11.1563 6.68144L6.68088 11.1568C6.57019 11.2754 6.41205 11.3307 6.26181 11.3307Z" fill="#292D32"/>
<path d="M10.7372 11.3307C10.587 11.3307 10.4367 11.2754 10.3181 11.1568L5.84275 6.68144C5.61345 6.45214 5.61345 6.0726 5.84275 5.8433C6.07205 5.614 6.45158 5.614 6.68088 5.8433L11.1563 10.3186C11.3856 10.5479 11.3856 10.9275 11.1563 11.1568C11.0377 11.2754 10.8874 11.3307 10.7372 11.3307Z" fill="#292D32"/>
</svg>
