<svg width="34" height="34" viewBox="0 0 34 34" fill="none" xmlns="http://www.w3.org/2000/svg">
<path d="M16.7788 23.6301V26.9076" stroke="#223C24" stroke-width="2" stroke-linecap="round" stroke-linejoin="round"/>
<path d="M8.97534 32.214H24.5823V30.6533C24.5823 28.9365 23.1777 27.5319 21.4609 27.5319H12.0967C10.38 27.5319 8.97534 28.9365 8.97534 30.6533V32.214Z" stroke="#223C24" stroke-width="2" stroke-miterlimit="10"/>
<path d="M7.41455 32.214H26.1429" stroke="#223C24" stroke-width="2" stroke-linecap="round" stroke-linejoin="round"/>
<path d="M16.5445 22.8498C10.5046 22.8498 5.61963 17.9648 5.61963 11.9249V7.24279C5.61963 3.79365 8.41328 1 11.8624 1H21.2266C24.6758 1 27.4694 3.79365 27.4694 7.24279V11.9249C27.4694 17.9648 22.5844 22.8498 16.5445 22.8498Z" stroke="#223C24" stroke-width="2" stroke-linecap="round" stroke-linejoin="round"/>
<path d="M6.3532 16.0607C5.18267 15.6862 4.15261 14.9995 3.34105 14.1879C1.93642 12.6272 1 10.7543 1 8.56936C1 6.38438 2.71677 4.66761 4.90175 4.66761H5.9162C5.60406 5.38553 5.44799 6.18149 5.44799 7.00866V11.6908C5.44799 13.2515 5.77574 14.7185 6.3532 16.0607Z" stroke="#223C24" stroke-width="2" stroke-linecap="round" stroke-linejoin="round"/>
<path d="M26.7358 16.0607C27.9064 15.6862 28.9364 14.9995 29.748 14.1879C31.1526 12.6272 32.089 10.7543 32.089 8.56936C32.089 6.38438 30.3723 4.66761 28.1873 4.66761H27.1728C27.485 5.38553 27.641 6.18149 27.641 7.00866V11.6908C27.641 13.2515 27.3133 14.7185 26.7358 16.0607Z" stroke="#223C24" stroke-width="2" stroke-linecap="round" stroke-linejoin="round"/>
</svg>
