<svg width="19" height="19" viewBox="0 0 19 19" fill="none" xmlns="http://www.w3.org/2000/svg">
<path d="M11.3976 18.031H6.42413C1.92309 18.031 0 16.1079 0 11.6069V6.63336C0 2.13232 1.92309 0.209229 6.42413 0.209229H8.08197C8.42182 0.209229 8.70366 0.491061 8.70366 0.830918C8.70366 1.17078 8.42182 1.45261 8.08197 1.45261H6.42413C2.60281 1.45261 1.24338 2.81204 1.24338 6.63336V11.6069C1.24338 15.4282 2.60281 16.7876 6.42413 16.7876H11.3976C15.219 16.7876 16.5784 15.4282 16.5784 11.6069V9.94904C16.5784 9.60918 16.8602 9.32735 17.2001 9.32735C17.5399 9.32735 17.8218 9.60918 17.8218 9.94904V11.6069C17.8218 16.1079 15.8987 18.031 11.3976 18.031Z" fill="#223C24"/>
<path d="M6.0092 13.8368C5.50356 13.8368 5.03937 13.6544 4.69951 13.3228C4.29334 12.9167 4.11927 12.3281 4.21045 11.7065L4.56688 9.2114C4.6332 8.73063 4.94819 8.10894 5.28804 7.76908L11.8199 1.23716C13.4694 -0.412388 15.1439 -0.412388 16.7934 1.23716C17.6969 2.14069 18.1031 3.06079 18.0202 3.98089C17.9456 4.72691 17.5477 5.45636 16.7934 6.20239L10.2615 12.7343C9.92166 13.0742 9.29997 13.3892 8.8192 13.4555L6.32419 13.8119C6.21643 13.8368 6.10867 13.8368 6.0092 13.8368ZM12.6985 2.11582L6.1667 8.64774C6.0092 8.80523 5.82684 9.16996 5.79368 9.38548L5.43725 11.8805C5.40409 12.1209 5.45383 12.3199 5.57816 12.4442C5.7025 12.5685 5.90144 12.6183 6.14183 12.5851L8.63684 12.2287C8.85236 12.1955 9.22537 12.0132 9.37458 11.8557L15.9065 5.32374C16.4453 4.78494 16.7271 4.30417 16.7685 3.85655C16.8183 3.31775 16.5364 2.7458 15.9065 2.10753C14.5802 0.781257 13.6684 1.15427 12.6985 2.11582Z" fill="#223C24"/>
<path d="M15.4173 7.32123C15.3593 7.32123 15.3013 7.31294 15.2515 7.29636C13.0715 6.68296 11.339 4.95052 10.7256 2.77046C10.6345 2.43889 10.8251 2.09904 11.1567 1.99957C11.4882 1.90839 11.8281 2.09904 11.9193 2.43061C12.4166 4.1962 13.8175 5.59708 15.5831 6.09443C15.9147 6.18561 16.1053 6.53376 16.0141 6.86533C15.9395 7.14716 15.6909 7.32123 15.4173 7.32123Z" fill="#223C24"/>
</svg>
