<svg width="33" height="33" viewBox="0 0 33 33" fill="none" xmlns="http://www.w3.org/2000/svg">
<path d="M21.6711 33H21.4622C14.3289 33 10.8907 30.1884 10.2962 23.8905C10.232 23.2318 10.714 22.6373 11.3887 22.573C12.0314 22.5088 12.6419 23.0068 12.7062 23.6655C13.1721 28.7103 15.5499 30.5901 21.4783 30.5901H21.6872C28.2261 30.5901 30.5396 28.2765 30.5396 21.7376V11.2624C30.5396 4.72346 28.2261 2.40993 21.6872 2.40993H21.4783C15.5178 2.40993 13.14 4.32181 12.7062 9.46299C12.6258 10.1217 12.0635 10.6198 11.3887 10.5555C10.714 10.5073 10.232 9.91284 10.2802 9.25413C10.8264 2.85978 14.2807 0 21.4622 0H21.6711C29.5596 0 32.9335 3.3739 32.9335 11.2624V21.7376C32.9335 29.6261 29.5596 33 21.6711 33Z" fill="#223C24"/>
<path d="M21.2832 17.705H2.99989C2.34117 17.705 1.79492 17.1587 1.79492 16.5C1.79492 15.8413 2.34117 15.295 2.99989 15.295H21.2832C21.9419 15.295 22.4881 15.8413 22.4881 16.5C22.4881 17.1587 21.9419 17.705 21.2832 17.705Z" fill="#223C24"/>
<path d="M6.58312 23.0873C6.27787 23.0873 5.97261 22.9749 5.73162 22.7339L0.34944 17.3517C-0.11648 16.8858 -0.11648 16.1146 0.34944 15.6487L5.73162 10.2665C6.19754 9.80056 6.96871 9.80056 7.43463 10.2665C7.90055 10.7324 7.90055 11.5036 7.43463 11.9695L2.90396 16.5002L7.43463 21.0308C7.90055 21.4968 7.90055 22.2679 7.43463 22.7339C7.20971 22.9749 6.88838 23.0873 6.58312 23.0873Z" fill="#223C24"/>
</svg>
