<svg width="30" height="27" viewBox="0 0 30 27" fill="none" xmlns="http://www.w3.org/2000/svg">
<path d="M19.967 26.6408C19.3585 26.6408 18.75 26.5135 18.2547 26.2729L10.8255 22.5512C10.4009 22.3389 9.56602 22.3531 9.15564 22.5937L5.81603 24.504C4.37263 25.3248 2.88679 25.438 1.76886 24.7729C0.636791 24.122 0 22.7918 0 21.122V7.36721C0 6.07948 0.849055 4.62193 1.96698 3.98514L8.09432 0.475713C9.12734 -0.118625 10.6981 -0.161078 11.7594 0.376657L19.1887 4.09835C19.6132 4.31061 20.434 4.28231 20.8585 4.0559L24.184 2.15967C25.6274 1.33892 27.1132 1.22571 28.2311 1.89081C29.3632 2.54175 30 3.87193 30 5.54174V19.3106C30 20.5984 29.1509 22.0559 28.033 22.6927L21.9057 26.2021C21.3679 26.4852 20.6604 26.6408 19.967 26.6408ZM10.0472 20.2871C10.6556 20.2871 11.2641 20.4144 11.7594 20.655L19.1887 24.3767C19.6132 24.5889 20.434 24.5606 20.8585 24.3342L26.9859 20.8248C27.4387 20.5701 27.8774 19.8059 27.8774 19.2965V5.52759C27.8774 4.63608 27.6226 3.97099 27.1557 3.71627C26.7028 3.46156 25.9953 3.56061 25.2311 3.99929L21.9057 5.89552C20.8727 6.48985 19.3019 6.53231 18.2406 5.99457L10.8113 2.27288C10.3868 2.06062 9.56602 2.08892 9.14149 2.31533L3.01415 5.82476C2.56132 6.07948 2.12264 6.84363 2.12264 7.36721V21.1361C2.12264 22.0276 2.37735 22.6927 2.83018 22.9474C3.28301 23.2163 3.99056 23.1031 4.76886 22.6644L8.09432 20.7682C8.64621 20.4427 9.35376 20.2871 10.0472 20.2871Z" fill="#9BBD95"/>
<path d="M9.93607 21.4613C9.35589 21.4613 8.87476 20.9802 8.87476 20.4V2.00379C8.87476 1.42361 9.35589 0.942474 9.93607 0.942474C10.5163 0.942474 10.9974 1.42361 10.9974 2.00379V20.4C10.9974 20.9802 10.5163 21.4613 9.93607 21.4613Z" fill="#9BBD95"/>
<path d="M20.0823 25.7067C19.5021 25.7067 19.021 25.2256 19.021 24.6454V5.7115C19.021 5.13131 19.5021 4.65018 20.0823 4.65018C20.6625 4.65018 21.1436 5.13131 21.1436 5.7115V24.6454C21.1436 25.2256 20.6625 25.7067 20.0823 25.7067Z" fill="#9BBD95"/>
</svg>
