<svg width="12" height="17" viewBox="0 0 12 17" fill="none" xmlns="http://www.w3.org/2000/svg">
<ellipse cx="6" cy="6.375" rx="5" ry="5.3125" fill="#223C24"/>
<path d="M6 0C9.32 0 12 2.8475 12 6.375C12 10.625 6 17 6 17C6 17 0 10.625 0 6.375C0 2.8475 2.68 0 6 0ZM6 2.125C3.78 2.125 2 4.0375 2 6.375C2 8.73375 3.78 10.625 6 10.625C8.2 10.625 10 8.73375 10 6.375C10 4.0375 8.2 2.125 6 2.125Z" fill="#223C24"/>
<ellipse cx="5.99992" cy="6.25" rx="4.16667" ry="4.375" fill="#223C24"/>
<path d="M6 1C8.76667 1 11 3.345 11 6.25C11 9.75 6 15 6 15C6 15 1 9.75 1 6.25C1 3.345 3.23333 1 6 1ZM6 2.75C4.15 2.75 2.66667 4.325 2.66667 6.25C2.66667 8.1925 4.15 9.75 6 9.75C7.83333 9.75 9.33333 8.1925 9.33333 6.25C9.33333 4.325 7.83333 2.75 6 2.75Z" fill="#9BBD95"/>
</svg>
