<svg width="32" height="34" viewBox="0 0 32 34" fill="none" xmlns="http://www.w3.org/2000/svg">
<path d="M11.7278 16.0849C11.6813 16.0849 11.6502 16.0849 11.6037 16.0849C11.5262 16.0693 11.4176 16.0693 11.3245 16.0849C6.82634 15.9453 3.42944 12.4088 3.42944 8.05018C3.42944 3.61405 7.0435 0 11.4796 0C15.9157 0 19.5297 3.61405 19.5297 8.05018C19.5142 12.4088 16.1018 15.9453 11.7743 16.0849C11.7588 16.0849 11.7433 16.0849 11.7278 16.0849ZM11.4796 2.32664C8.3309 2.32664 5.75609 4.90146 5.75609 8.05018C5.75609 11.1524 8.17579 13.6496 11.2625 13.7582C11.3555 13.7427 11.5572 13.7427 11.7588 13.7582C14.7989 13.6186 17.1876 11.1213 17.2031 8.05018C17.2031 4.90146 14.6283 2.32664 11.4796 2.32664Z" fill="#223B24"/>
<path d="M23.1742 16.2865C23.1277 16.2865 23.0812 16.2865 23.0346 16.271C22.3987 16.333 21.7472 15.8832 21.6852 15.2473C21.6232 14.6113 22.0109 14.0374 22.6469 13.9599C22.833 13.9443 23.0346 13.9443 23.2053 13.9443C25.4699 13.8203 27.2381 11.9589 27.2381 9.67883C27.2381 7.32117 25.3303 5.41332 22.9726 5.41332C22.3367 5.42883 21.8093 4.90146 21.8093 4.26551C21.8093 3.62956 22.3367 3.10219 22.9726 3.10219C26.6022 3.10219 29.5648 6.06478 29.5648 9.69434C29.5648 13.2619 26.7728 16.1469 23.2208 16.2865C23.2053 16.2865 23.1898 16.2865 23.1742 16.2865Z" fill="#223B24"/>
<path d="M11.7418 33.0383C8.70164 33.0383 5.64599 32.2628 3.33485 30.7117C1.17883 29.2847 0 27.3303 0 25.2053C0 23.0803 1.17883 21.1104 3.33485 19.6679C7.98814 16.5812 15.5264 16.5812 20.1487 19.6679C22.2892 21.0949 23.4836 23.0493 23.4836 25.1743C23.4836 27.2993 22.3047 29.2692 20.1487 30.7117C17.8221 32.2628 14.7819 33.0383 11.7418 33.0383ZM4.62226 21.6223C3.13321 22.615 2.32664 23.8869 2.32664 25.2208C2.32664 26.5392 3.14872 27.8111 4.62226 28.7883C8.48449 31.3786 14.9991 31.3786 18.8613 28.7883C20.3503 27.7956 21.1569 26.5237 21.1569 25.1898C21.1569 23.8713 20.3348 22.5994 18.8613 21.6223C14.9991 19.0474 8.48449 19.0474 4.62226 21.6223Z" fill="#223B24"/>
<path d="M25.9663 30.2463C25.4234 30.2463 24.9425 29.8741 24.834 29.3157C24.7099 28.6797 25.1132 28.0748 25.7336 27.9352C26.7108 27.7336 27.6104 27.3458 28.3084 26.8029C29.1925 26.1359 29.6734 25.2984 29.6734 24.4142C29.6734 23.5301 29.1925 22.6925 28.3239 22.0411C27.6414 21.5137 26.7883 21.1414 25.7801 20.9088C25.1597 20.7692 24.7564 20.1487 24.896 19.5128C25.0356 18.8923 25.656 18.4891 26.292 18.6286C27.6259 18.9234 28.7892 19.4507 29.7354 20.1797C31.1779 21.2655 32 22.8011 32 24.4142C32 26.0274 31.1624 27.563 29.7199 28.6642C28.7582 29.4088 27.5484 29.9516 26.2144 30.2153C26.1214 30.2463 26.0438 30.2463 25.9663 30.2463Z" fill="#223B24"/>
</svg>
