<svg width="35" height="33" viewBox="0 0 35 33" fill="none" xmlns="http://www.w3.org/2000/svg">
<path d="M17.4053 22.5668C14.0538 22.5668 11.3337 19.8467 11.3337 16.4952C11.3337 13.1437 14.0538 10.4236 17.4053 10.4236C20.7568 10.4236 23.4769 13.1437 23.4769 16.4952C23.4769 19.8467 20.7568 22.5668 17.4053 22.5668ZM17.4053 12.8523C15.3976 12.8523 13.7624 14.4876 13.7624 16.4952C13.7624 18.5029 15.3976 20.1382 17.4053 20.1382C19.413 20.1382 21.0483 18.5029 21.0483 16.4952C21.0483 14.4876 19.413 12.8523 17.4053 12.8523Z" fill="#223C24"/>
<path d="M22.6024 32.9934C22.2624 32.9934 21.9224 32.9448 21.5824 32.8639C20.5786 32.5886 19.7367 31.9572 19.2024 31.0667L19.0081 30.7429C18.0528 29.0914 16.7414 29.0914 15.7861 30.7429L15.608 31.0505C15.0737 31.9572 14.2318 32.6048 13.2279 32.8639C12.2079 33.1391 11.1555 32.9934 10.265 32.4591L7.48018 30.8562C6.49254 30.2895 5.78014 29.3666 5.47251 28.2495C5.18108 27.1323 5.32679 25.9828 5.89347 24.9951C6.36301 24.1694 6.49254 23.4246 6.21729 22.9551C5.94205 22.4855 5.24584 22.2103 4.29058 22.2103C1.92671 22.2103 0 20.2836 0 17.9197V15.0701C0 12.7062 1.92671 10.7795 4.29058 10.7795C5.24584 10.7795 5.94205 10.5043 6.21729 10.0348C6.49254 9.56522 6.3792 8.82044 5.89347 7.9947C5.32679 7.00706 5.18108 5.84132 5.47251 4.74034C5.76395 3.62317 6.47635 2.70029 7.48018 2.13361L10.2812 0.530715C12.1108 -0.554073 14.5232 0.0773702 15.6242 1.93932L15.8185 2.26314C16.7737 3.9146 18.0852 3.9146 19.0405 2.26314L19.2186 1.95551C20.3195 0.0773702 22.732 -0.554073 24.5777 0.546905L27.3626 2.1498C28.3502 2.71648 29.0626 3.63936 29.3702 4.75653C29.6617 5.8737 29.5159 7.02325 28.9493 8.01089C28.4797 8.83663 28.3502 9.58141 28.6254 10.0509C28.9007 10.5205 29.5969 10.7957 30.5522 10.7957C32.916 10.7957 34.8427 12.7224 34.8427 15.0863V17.9359C34.8427 20.2998 32.916 22.2265 30.5522 22.2265C29.5969 22.2265 28.9007 22.5017 28.6254 22.9713C28.3502 23.4408 28.4635 24.1856 28.9493 25.0113C29.5159 25.9989 29.6779 27.1647 29.3702 28.2657C29.0788 29.3828 28.3664 30.3057 27.3626 30.8724L24.5615 32.4753C23.9463 32.8153 23.2825 32.9934 22.6024 32.9934ZM17.4052 27.0028C18.8462 27.0028 20.19 27.9095 21.1129 29.5124L21.291 29.82C21.4853 30.16 21.8091 30.4029 22.1977 30.5C22.5863 30.5971 22.9748 30.5486 23.2987 30.3543L26.0997 28.7352C26.5206 28.4923 26.8445 28.0876 26.974 27.6018C27.1035 27.1161 27.0387 26.6142 26.7959 26.1932C25.873 24.6065 25.7597 22.9713 26.4721 21.7246C27.1845 20.4779 28.6578 19.7655 30.5036 19.7655C31.5398 19.7655 32.3655 18.9397 32.3655 17.9035V15.0539C32.3655 14.0339 31.5398 13.192 30.5036 13.192C28.6578 13.192 27.1845 12.4796 26.4721 11.2329C25.7597 9.98618 25.873 8.3509 26.7959 6.7642C27.0387 6.34323 27.1035 5.84132 26.974 5.35559C26.8445 4.86987 26.5368 4.48129 26.1159 4.22223L23.3148 2.61934C22.6186 2.19837 21.6958 2.44124 21.2748 3.15363L21.0967 3.46126C20.1738 5.06416 18.83 5.97085 17.389 5.97085C15.948 5.97085 14.6042 5.06416 13.6813 3.46126L13.5032 3.13744C13.0984 2.45743 12.1917 2.21456 11.4955 2.61934L8.69449 4.23842C8.27353 4.48129 7.94971 4.88606 7.82019 5.37178C7.69066 5.85751 7.75542 6.35943 7.99829 6.78039C8.92117 8.36709 9.0345 10.0024 8.3221 11.2491C7.60971 12.4958 6.13634 13.2082 4.29058 13.2082C3.25436 13.2082 2.42863 14.0339 2.42863 15.0701V17.9197C2.42863 18.9397 3.25436 19.7817 4.29058 19.7817C6.13634 19.7817 7.60971 20.4941 8.3221 21.7407C9.0345 22.9874 8.92117 24.6227 7.99829 26.2094C7.75542 26.6304 7.69066 27.1323 7.82019 27.618C7.94971 28.1038 8.25734 28.4923 8.6783 28.7514L11.4793 30.3543C11.8193 30.5648 12.2241 30.6133 12.5965 30.5162C12.9851 30.419 13.3089 30.16 13.5194 29.82L13.6975 29.5124C14.6203 27.9257 15.9642 27.0028 17.4052 27.0028Z" fill="#223C24"/>
</svg>
