<svg width="15" height="15" viewBox="0 0 15 15" fill="none" xmlns="http://www.w3.org/2000/svg">
<path d="M10.843 13.8061C10.5251 13.8061 10.1172 13.7041 9.6074 13.4042L7.81396 12.3425C7.62801 12.2345 7.26812 12.2345 7.08818 12.3425L5.28875 13.4042C4.22707 14.034 3.60327 13.7821 3.32135 13.5781C3.04544 13.3742 2.61357 12.8524 2.89549 11.6527L3.32135 9.8113C3.36934 9.61936 3.27337 9.28946 3.12941 9.1455L1.64187 7.65796C0.898102 6.91419 0.958084 6.27839 1.06005 5.96647C1.16202 5.65456 1.48592 5.10273 2.5176 4.92879L4.43101 4.61088C4.61096 4.58089 4.86888 4.38895 4.94685 4.227L6.00852 2.10966C6.48836 1.14396 7.11817 1 7.44807 1C7.77797 1 8.40777 1.14396 8.88762 2.10966L9.9433 4.22101C10.0273 4.38296 10.2852 4.5749 10.4651 4.60489L12.3785 4.92279C13.4162 5.09673 13.7401 5.64856 13.8361 5.96047C13.9321 6.27239 13.992 6.90819 13.2543 7.65196L11.7667 9.1455C11.6228 9.28946 11.5328 9.61336 11.5748 9.8113L12.0007 11.6527C12.2766 12.8524 11.8507 13.3742 11.5748 13.5781C11.4248 13.6861 11.1849 13.8061 10.843 13.8061ZM7.44807 11.3588C7.74198 11.3588 8.03589 11.4308 8.26981 11.5688L10.0633 12.6304C10.5851 12.9423 10.915 12.9423 11.041 12.8524C11.1669 12.7624 11.2569 12.4445 11.1249 11.8567L10.6991 10.0152C10.5851 9.51739 10.771 8.87559 11.1309 8.5097L12.6185 7.02216C12.9124 6.72825 13.0443 6.44034 12.9844 6.2424C12.9184 6.04444 12.6425 5.88249 12.2346 5.81651L10.3212 5.49861C9.85932 5.42063 9.35548 5.04875 9.14554 4.62888L8.08987 2.51753C7.89793 2.13365 7.658 1.90572 7.44807 1.90572C7.23813 1.90572 6.99821 2.13365 6.81226 2.51753L5.7506 4.62888C5.54067 5.04875 5.03682 5.42063 4.57497 5.49861L2.66756 5.81651C2.25968 5.88249 1.98377 6.04444 1.91779 6.2424C1.85181 6.44034 1.98977 6.73425 2.28367 7.02216L3.77122 8.5097C4.1311 8.86959 4.31705 9.51739 4.20308 10.0152L3.77721 11.8567C3.63926 12.4505 3.73523 12.7624 3.86119 12.8524C3.98715 12.9423 4.31105 12.9363 4.83889 12.6304L6.63232 11.5688C6.86025 11.4308 7.15416 11.3588 7.44807 11.3588Z" fill="black" stroke="#9BBD95" stroke-width="0.9"/>
</svg>
