<svg width="29" height="29" viewBox="0 0 29 29" fill="none" xmlns="http://www.w3.org/2000/svg">
<path d="M22.141 28.8061C21.4259 28.8061 20.5084 28.5767 19.3616 27.9021L15.3274 25.5139C14.9091 25.2711 14.0996 25.2711 13.6948 25.5139L9.64714 27.9021C7.25901 29.3188 5.85581 28.7521 5.22167 28.2934C4.60103 27.8346 3.62958 26.6608 4.26372 23.9623L5.22167 19.8202C5.32961 19.3884 5.11373 18.6464 4.78992 18.3226L1.44383 14.9765C-0.22921 13.3034 -0.0942871 11.8732 0.135082 11.1716C0.364451 10.47 1.09303 9.22872 3.41371 8.83745L7.71774 8.12235C8.12251 8.05489 8.70268 7.62314 8.87808 7.25885L11.2662 2.49607C12.3456 0.323815 13.7623 0 14.5043 0C15.2464 0 16.6631 0.323815 17.7425 2.49607L20.1171 7.24536C20.306 7.60965 20.8862 8.0414 21.291 8.10886L25.595 8.82395C27.9292 9.21523 28.6577 10.4565 28.8736 11.1581C29.0895 11.8598 29.2244 13.2899 27.5649 14.963L24.2188 18.3226C23.895 18.6464 23.6926 19.375 23.787 19.8202L24.745 23.9623C25.3656 26.6608 24.4077 27.8346 23.787 28.2934C23.4497 28.5362 22.91 28.8061 22.141 28.8061ZM14.5043 23.3012C15.1655 23.3012 15.8266 23.4631 16.3528 23.7734L20.387 26.1616C21.5608 26.8632 22.3029 26.8632 22.5862 26.6608C22.8696 26.4584 23.0719 25.7433 22.7751 24.4211L21.8172 20.2789C21.5608 19.1591 21.9791 17.7154 22.7886 16.8924L26.1347 13.5463C26.7958 12.8852 27.0926 12.2375 26.9577 11.7923C26.8093 11.347 26.1887 10.9827 25.2712 10.8343L20.9671 10.1192C19.9282 9.94381 18.7949 9.10729 18.3227 8.16283L15.948 3.41355C15.5163 2.55004 14.9766 2.03733 14.5043 2.03733C14.0321 2.03733 13.4924 2.55004 13.0742 3.41355L10.686 8.16283C10.2138 9.10729 9.08047 9.94381 8.04156 10.1192L3.75101 10.8343C2.83354 10.9827 2.21289 11.347 2.06448 11.7923C1.91606 12.2375 2.22639 12.8987 2.88751 13.5463L6.23359 16.8924C7.04313 17.7019 7.46139 19.1591 7.20504 20.2789L6.24709 24.4211C5.93676 25.7568 6.15264 26.4584 6.43598 26.6608C6.71932 26.8632 7.4479 26.8497 8.63522 26.1616L12.6694 23.7734C13.1821 23.4631 13.8432 23.3012 14.5043 23.3012Z" fill="#9BBD95"/>
</svg>
