<svg width="17" height="17" viewBox="0 0 17 17" fill="none" xmlns="http://www.w3.org/2000/svg">
<path d="M8.48 16.96C3.8022 16.96 0 13.1578 0 8.48C0 3.8022 3.8022 0 8.48 0C13.1578 0 16.96 3.8022 16.96 8.48C16.96 13.1578 13.1578 16.96 8.48 16.96ZM8.48 1.18326C4.45693 1.18326 1.18326 4.45693 1.18326 8.48C1.18326 12.5031 4.45693 15.7767 8.48 15.7767C12.5031 15.7767 15.7767 12.5031 15.7767 8.48C15.7767 4.45693 12.5031 1.18326 8.48 1.18326Z" fill="#292D32"/>
<path d="M7.35946 11.3041C7.20169 11.3041 7.05181 11.241 6.94137 11.1306L4.70893 8.89818C4.48016 8.66942 4.48016 8.29078 4.70893 8.06202C4.93769 7.83325 5.31633 7.83325 5.54509 8.06202L7.35946 9.87634L11.4141 5.82172C11.6428 5.59296 12.0215 5.59296 12.2502 5.82172C12.479 6.05048 12.479 6.42912 12.2502 6.65789L7.77754 11.1306C7.6671 11.241 7.51723 11.3041 7.35946 11.3041Z" fill="#292D32"/>
</svg>
